<svg width="1920" height="3825" viewBox="0 0 1920 3825" fill="none" xmlns="http://www.w3.org/2000/svg">
<path fill-rule="evenodd" clip-rule="evenodd" d="M342.537 -278.48C342.139 -279.967 343.5 -281.328 344.987 -280.93L421.946 -260.308C423.434 -259.91 423.932 -258.051 422.843 -256.962L366.505 -200.624C365.416 -199.535 363.557 -200.034 363.159 -201.521L342.537 -278.48ZM250.614 -186.556C250.215 -188.043 251.576 -189.404 253.063 -189.006L330.023 -168.385C331.51 -167.986 332.008 -166.127 330.919 -165.039L274.581 -108.7C273.492 -107.612 271.633 -108.11 271.235 -109.597L250.614 -186.556ZM161.139 -97.082C159.652 -97.4804 158.291 -96.1196 158.69 -94.6325L179.311 -17.673C179.709 -16.1859 181.568 -15.6877 182.657 -16.7764L238.995 -73.1147C240.084 -74.2033 239.586 -76.0622 238.099 -76.4607L161.139 -97.082ZM66.7658 -2.70859C66.3673 -4.19574 67.7281 -5.55655 69.2153 -5.15808L146.175 15.4632C147.662 15.8616 148.16 17.7206 147.071 18.8092L90.7331 75.1475C89.6444 76.2361 87.7855 75.738 87.387 74.2509L66.7658 -2.70859ZM-22.7086 86.7658C-24.1957 86.3673 -25.5566 87.7281 -25.1581 89.2153L-4.53687 166.175C-4.1384 167.662 -2.27945 168.16 -1.1908 167.071L55.1475 110.733C56.2361 109.644 55.738 107.786 54.2509 107.387L-22.7086 86.7658ZM-117.082 181.139C-117.48 179.652 -116.12 178.291 -114.632 178.69L-37.673 199.311C-36.1859 199.709 -35.6877 201.568 -36.7764 202.657L-93.1147 258.995C-94.2033 260.084 -96.0623 259.586 -96.4607 258.099L-117.082 181.139ZM-206.556 270.614C-208.044 270.215 -209.404 271.576 -209.006 273.063L-188.385 350.023C-187.986 351.51 -186.127 352.008 -185.039 350.919L-128.7 294.581C-127.612 293.492 -128.11 291.633 -129.597 291.235L-206.556 270.614ZM-300.93 364.987C-301.328 363.5 -299.967 362.139 -298.48 362.537L-221.521 383.159C-220.034 383.557 -219.536 385.416 -220.624 386.505L-276.962 442.843C-278.051 443.932 -279.91 443.434 -280.309 441.946L-300.93 364.987ZM415.698 -210.219C414.21 -210.618 412.85 -209.257 413.248 -207.77L433.869 -130.81C434.268 -129.323 436.127 -128.825 437.215 -129.913L493.554 -186.252C494.642 -187.34 494.144 -189.199 492.657 -189.598L415.698 -210.219ZM321.324 -115.846C320.926 -117.333 322.287 -118.694 323.774 -118.295L400.733 -97.6739C402.22 -97.2755 402.718 -95.4165 401.63 -94.3279L345.292 -37.9896C344.203 -36.9009 342.344 -37.399 341.945 -38.8862L321.324 -115.846ZM231.85 -26.3713C230.363 -26.7698 229.002 -25.4089 229.4 -23.9218L250.022 53.0377C250.42 54.5248 252.279 55.0229 253.368 53.9343L309.706 -2.40399C310.795 -3.49265 310.296 -5.35156 308.809 -5.75006L231.85 -26.3713ZM137.476 68.0021C137.078 66.515 138.439 65.1541 139.926 65.5526L216.885 86.1738C218.373 86.5723 218.871 88.4312 217.782 89.5199L161.444 145.858C160.355 146.947 158.496 146.449 158.098 144.962L137.476 68.0021ZM48.0021 157.476C46.5149 157.078 45.1541 158.439 45.5526 159.926L66.1738 236.885C66.5723 238.373 68.4312 238.871 69.5199 237.782L125.858 181.444C126.947 180.355 126.449 178.496 124.962 178.098L48.0021 157.476ZM-46.3713 251.85C-46.7698 250.363 -45.409 249.002 -43.9218 249.4L33.0377 270.022C34.5248 270.42 35.0229 272.279 33.9343 273.368L-22.404 329.706C-23.4927 330.795 -25.3516 330.296 -25.7501 328.809L-46.3713 251.85ZM-135.846 341.324C-137.333 340.926 -138.694 342.287 -138.295 343.774L-117.674 420.733C-117.275 422.22 -115.417 422.718 -114.328 421.63L-57.9896 365.292C-56.901 364.203 -57.399 362.344 -58.8862 361.945L-135.846 341.324ZM-230.219 435.698C-230.618 434.21 -229.257 432.85 -227.77 433.248L-150.81 453.869C-149.323 454.268 -148.825 456.127 -149.913 457.215L-206.252 513.554C-207.34 514.642 -209.199 514.144 -209.598 512.657L-230.219 435.698ZM486.408 -139.508C484.921 -139.907 483.56 -138.546 483.959 -137.059L504.58 -60.0994C504.978 -58.6122 506.837 -58.1142 507.926 -59.2028L564.264 -115.541C565.353 -116.63 564.855 -118.489 563.368 -118.887L486.408 -139.508ZM392.035 -45.135C391.636 -46.6221 392.997 -47.983 394.484 -47.5845L471.444 -26.9633C472.931 -26.5648 473.429 -24.7058 472.34 -23.6172L416.002 32.7211C414.914 33.8097 413.055 33.3116 412.656 31.8245L392.035 -45.135ZM302.56 44.3394C301.073 43.9409 299.713 45.3017 300.111 46.7889L320.732 123.748C321.131 125.236 322.99 125.734 324.078 124.645L380.417 68.3067C381.505 67.218 381.007 65.3591 379.52 64.9606L302.56 44.3394ZM208.187 138.713C207.789 137.226 209.149 135.865 210.637 136.263L287.596 156.884C289.083 157.283 289.581 159.142 288.493 160.231L232.154 216.569C231.066 217.658 229.207 217.159 228.808 215.672L208.187 138.713ZM118.713 228.187C117.226 227.789 115.865 229.15 116.263 230.637L136.884 307.596C137.283 309.083 139.142 309.581 140.231 308.493L196.569 252.154C197.657 251.066 197.159 249.207 195.672 248.808L118.713 228.187ZM24.3394 322.561C23.9409 321.073 25.3017 319.713 26.7889 320.111L103.748 340.732C105.236 341.131 105.734 342.99 104.645 344.078L48.3067 400.417C47.218 401.505 45.3591 401.007 44.9606 399.52L24.3394 322.561ZM-65.135 412.035C-66.6222 411.636 -67.983 412.997 -67.5845 414.484L-46.9633 491.444C-46.5648 492.931 -44.7059 493.429 -43.6172 492.34L12.7211 436.002C13.8097 434.914 13.3116 433.055 11.8245 432.656L-65.135 412.035ZM-159.508 506.408C-159.907 504.921 -158.546 503.56 -157.059 503.959L-80.0994 524.58C-78.6123 524.979 -78.1142 526.837 -79.2028 527.926L-135.541 584.264C-136.63 585.353 -138.489 584.855 -138.887 583.368L-159.508 506.408ZM557.119 -68.7977C555.632 -69.1962 554.271 -67.8353 554.669 -66.3482L575.291 10.6113C575.689 12.0984 577.548 12.5965 578.637 11.5079L634.975 -44.8304C636.064 -45.9191 635.566 -47.778 634.078 -48.1765L557.119 -68.7977ZM462.746 25.5757C462.347 24.0885 463.708 22.7277 465.195 23.1262L542.155 43.7474C543.642 44.1459 544.14 46.0048 543.051 47.0935L486.713 103.432C485.624 104.52 483.765 104.022 483.367 102.535L462.746 25.5757ZM373.271 115.05C371.784 114.652 370.423 116.012 370.822 117.5L391.443 194.459C391.841 195.946 393.7 196.444 394.789 195.356L451.127 139.017C452.216 137.929 451.718 136.07 450.231 135.671L373.271 115.05ZM278.898 209.423C278.499 207.936 279.86 206.575 281.347 206.974L358.307 227.595C359.794 227.994 360.292 229.853 359.203 230.941L302.865 287.279C301.776 288.368 299.918 287.87 299.519 286.383L278.898 209.423ZM189.423 298.898C187.936 298.499 186.575 299.86 186.974 301.347L207.595 378.307C207.994 379.794 209.853 380.292 210.941 379.203L267.279 322.865C268.368 321.776 267.87 319.918 266.383 319.519L189.423 298.898ZM95.05 393.271C94.6516 391.784 96.0124 390.423 97.4995 390.822L174.459 411.443C175.946 411.841 176.444 413.7 175.356 414.789L119.017 471.127C117.929 472.216 116.07 471.718 115.671 470.231L95.05 393.271ZM5.57565 482.746C4.08853 482.347 2.72769 483.708 3.12616 485.195L23.7474 562.155C24.1459 563.642 26.0048 564.14 27.0935 563.051L83.4317 506.713C84.5204 505.624 84.0223 503.765 82.5352 503.367L5.57565 482.746ZM-88.7977 577.119C-89.1962 575.632 -87.8354 574.271 -86.3482 574.669L-9.38873 595.291C-7.90158 595.689 -7.40347 597.548 -8.49216 598.637L-64.8304 654.975C-65.9191 656.064 -67.778 655.566 -68.1765 654.078L-88.7977 577.119ZM719.753 -90.0109C718.266 -90.4094 716.906 -89.0486 717.304 -87.5614L737.925 -10.6019C738.324 -9.11478 740.183 -8.61667 741.271 -9.70532L797.61 -66.0436C798.698 -67.1323 798.2 -68.9912 796.713 -69.3897L719.753 -90.0109ZM625.38 4.36249C624.982 2.87534 626.342 1.5145 627.83 1.91299L704.789 22.5342C706.276 22.9327 706.774 24.7916 705.686 25.8803L649.347 82.2185C648.259 83.3072 646.4 82.8091 646.001 81.322L625.38 4.36249ZM535.906 93.8369C534.419 93.4384 533.058 94.7992 533.456 96.2863L554.077 173.246C554.476 174.733 556.335 175.231 557.424 174.142L613.762 117.804C614.85 116.716 614.352 114.857 612.865 114.458L535.906 93.8369ZM441.532 188.21C441.134 186.723 442.495 185.362 443.982 185.761L520.941 206.382C522.428 206.78 522.927 208.639 521.838 209.728L465.5 266.066C464.411 267.155 462.552 266.657 462.154 265.17L441.532 188.21ZM352.058 277.685C350.571 277.286 349.21 278.647 349.608 280.134L370.23 357.094C370.628 358.581 372.487 359.079 373.576 357.99L429.914 301.652C431.003 300.563 430.505 298.704 429.017 298.306L352.058 277.685ZM257.685 372.058C257.286 370.571 258.647 369.21 260.134 369.609L337.094 390.23C338.581 390.628 339.079 392.487 337.99 393.576L281.652 449.914C280.563 451.003 278.704 450.505 278.306 449.018L257.685 372.058ZM168.21 461.532C166.723 461.134 165.362 462.495 165.761 463.982L186.382 540.941C186.78 542.429 188.639 542.927 189.728 541.838L246.066 485.5C247.155 484.411 246.657 482.552 245.17 482.154L168.21 461.532ZM73.8369 555.906C73.4384 554.419 74.7992 553.058 76.2863 553.456L153.246 574.078C154.733 574.476 155.231 576.335 154.142 577.424L97.8041 633.762C96.7155 634.85 94.8566 634.352 94.4581 632.865L73.8369 555.906ZM-15.6375 645.38C-17.1247 644.982 -18.4855 646.342 -18.087 647.83L2.53421 724.789C2.93268 726.276 4.7916 726.774 5.88028 725.686L62.2185 669.347C63.3072 668.259 62.8091 666.4 61.322 666.001L-15.6375 645.38ZM-110.011 739.754C-110.409 738.266 -109.049 736.906 -107.561 737.304L-30.6019 757.925C-29.1148 758.324 -28.6167 760.183 -29.7054 761.271L-86.0436 817.61C-87.1323 818.698 -88.9912 818.2 -89.3897 816.713L-110.011 739.754ZM882.388 -111.224C880.901 -111.623 879.54 -110.262 879.939 -108.775L900.56 -31.8151C900.958 -30.328 902.817 -29.8299 903.906 -30.9185L960.244 -87.2568C961.333 -88.3455 960.835 -90.2044 959.348 -90.6029L882.388 -111.224ZM788.015 -16.8507C787.616 -18.3379 788.977 -19.6987 790.464 -19.3002L867.424 1.32101C868.911 1.71948 869.409 3.57843 868.32 4.66708L811.982 61.0053C810.893 62.094 809.034 61.5959 808.636 60.1088L788.015 -16.8507ZM698.54 72.6237C697.053 72.2252 695.692 73.586 696.091 75.0732L716.712 152.033C717.111 153.52 718.969 154.018 720.058 152.929L776.396 96.591C777.485 95.5023 776.987 93.6434 775.5 93.2449L698.54 72.6237ZM604.167 166.997C603.768 165.51 605.129 164.149 606.616 164.548L683.576 185.169C685.063 185.567 685.561 187.426 684.472 188.515L628.134 244.853C627.046 245.942 625.187 245.444 624.788 243.957L604.167 166.997ZM514.693 256.471C513.205 256.073 511.845 257.434 512.243 258.921L532.864 335.88C533.263 337.368 535.122 337.866 536.21 336.777L592.549 280.439C593.637 279.35 593.139 277.491 591.652 277.093L514.693 256.471ZM420.319 350.845C419.921 349.358 421.281 347.997 422.769 348.395L499.728 369.017C501.215 369.415 501.713 371.274 500.625 372.363L444.286 428.701C443.198 429.79 441.339 429.291 440.94 427.804L420.319 350.845ZM330.845 440.319C329.358 439.921 327.997 441.282 328.395 442.769L349.017 519.728C349.415 521.215 351.274 521.713 352.363 520.625L408.701 464.286C409.789 463.198 409.291 461.339 407.804 460.94L330.845 440.319ZM236.471 534.693C236.073 533.205 237.434 531.845 238.921 532.243L315.88 552.864C317.368 553.263 317.866 555.122 316.777 556.21L260.439 612.549C259.35 613.637 257.491 613.139 257.093 611.652L236.471 534.693ZM146.997 624.167C145.51 623.768 144.149 625.129 144.548 626.616L165.169 703.576C165.567 705.063 167.426 705.561 168.515 704.472L224.853 648.134C225.942 647.046 225.444 645.187 223.956 644.788L146.997 624.167ZM52.6237 718.54C52.2252 717.053 53.586 715.692 55.0732 716.091L132.033 736.712C133.52 737.111 134.018 738.969 132.929 740.058L76.5909 796.396C75.5023 797.485 73.6433 796.987 73.2449 795.5L52.6237 718.54ZM-36.8507 808.015C-38.3379 807.616 -39.6987 808.977 -39.3002 810.464L-18.679 887.424C-18.2805 888.911 -16.4216 889.409 -15.3329 888.32L41.0053 831.982C42.094 830.893 41.5959 829.034 40.1088 828.636L-36.8507 808.015ZM-131.224 902.388C-131.623 900.901 -130.262 899.54 -128.775 899.939L-51.8151 920.56C-50.328 920.958 -49.8299 922.817 -50.9185 923.906L-107.257 980.244C-108.345 981.333 -110.204 980.835 -110.603 979.348L-131.224 902.388ZM1045.02 -132.437C1043.54 -132.836 1042.17 -131.475 1042.57 -129.988L1063.19 -53.0283C1063.59 -51.5412 1065.45 -51.0431 1066.54 -52.1317L1122.88 -108.47C1123.97 -109.559 1123.47 -111.418 1121.98 -111.816L1045.02 -132.437ZM950.649 -38.0639C950.251 -39.5511 951.612 -40.9119 953.099 -40.5134L1030.06 -19.8922C1031.55 -19.4937 1032.04 -17.6348 1030.95 -16.5461L974.617 39.7921C973.528 40.8808 971.669 40.3827 971.271 38.8956L950.649 -38.0639ZM861.175 51.4105C859.688 51.012 858.327 52.3728 858.725 53.86L879.347 130.819C879.745 132.307 881.604 132.805 882.693 131.716L939.031 75.3777C940.12 74.2891 939.621 72.4302 938.134 72.0317L861.175 51.4105ZM766.802 145.784C766.403 144.297 767.764 142.936 769.251 143.334L846.21 163.956C847.698 164.354 848.196 166.213 847.107 167.302L790.769 223.64C789.68 224.729 787.821 224.23 787.423 222.743L766.802 145.784ZM677.327 235.258C675.84 234.86 674.479 236.221 674.878 237.708L695.499 314.667C695.897 316.154 697.756 316.652 698.845 315.564L755.183 259.226C756.272 258.137 755.774 256.278 754.287 255.879L677.327 235.258ZM582.954 329.632C582.555 328.144 583.916 326.784 585.403 327.182L662.363 347.803C663.85 348.202 664.348 350.061 663.259 351.149L606.921 407.488C605.832 408.576 603.973 408.078 603.575 406.591L582.954 329.632ZM493.479 419.106C491.992 418.708 490.631 420.068 491.03 421.555L511.651 498.515C512.05 500.002 513.909 500.5 514.997 499.412L571.335 443.073C572.424 441.985 571.926 440.126 570.439 439.727L493.479 419.106ZM399.106 513.479C398.707 511.992 400.068 510.631 401.555 511.03L478.515 531.651C480.002 532.05 480.5 533.909 479.411 534.997L423.073 591.335C421.985 592.424 420.126 591.926 419.727 590.439L399.106 513.479ZM309.632 602.954C308.144 602.555 306.784 603.916 307.182 605.403L327.803 682.363C328.202 683.85 330.061 684.348 331.149 683.259L387.488 626.921C388.576 625.832 388.078 623.973 386.591 623.575L309.632 602.954ZM215.258 697.327C214.86 695.84 216.221 694.479 217.708 694.878L294.667 715.499C296.154 715.897 296.652 717.756 295.564 718.845L239.226 775.183C238.137 776.272 236.278 775.774 235.879 774.287L215.258 697.327ZM125.784 786.802C124.297 786.403 122.936 787.764 123.334 789.251L143.956 866.21C144.354 867.698 146.213 868.196 147.302 867.107L203.64 810.769C204.729 809.68 204.23 807.821 202.743 807.423L125.784 786.802ZM31.4104 881.175C31.012 879.688 32.3728 878.327 33.8599 878.725L110.819 899.347C112.307 899.745 112.805 901.604 111.716 902.693L55.3777 959.031C54.2891 960.12 52.4301 959.621 52.0317 958.134L31.4104 881.175ZM-58.0639 970.649C-59.5511 970.251 -60.9119 971.612 -60.5134 973.099L-39.8922 1050.06C-39.4937 1051.55 -37.6348 1052.04 -36.5461 1050.95L19.7921 994.617C20.8808 993.528 20.3827 991.669 18.8955 991.271L-58.0639 970.649ZM-152.437 1065.02C-152.836 1063.54 -151.475 1062.17 -149.988 1062.57L-73.0283 1083.19C-71.5412 1083.59 -71.0431 1085.45 -72.1318 1086.54L-128.47 1142.88C-129.559 1143.97 -131.418 1143.47 -131.816 1141.98L-152.437 1065.02Z" fill="url(#paint0_linear_3721_18)"/>
<path fill-rule="evenodd" clip-rule="evenodd" d="M1604.42 2642.43C1605.33 2643.67 1604.55 2645.43 1603.02 2645.59L1523.78 2653.96C1522.25 2654.12 1521.12 2652.57 1521.74 2651.16L1554.12 2578.36C1554.74 2576.95 1556.65 2576.75 1557.56 2577.99L1604.42 2642.43ZM1695.8 2683.06C1696.7 2684.3 1695.92 2686.06 1694.39 2686.22L1615.16 2694.59C1613.62 2694.75 1612.49 2693.19 1613.12 2691.79L1645.49 2618.99C1646.12 2617.58 1648.03 2617.38 1648.93 2618.62L1695.8 2683.06ZM1787.17 2723.69C1788.08 2724.93 1787.3 2726.69 1785.76 2726.85L1706.53 2735.22C1705 2735.38 1703.87 2733.82 1704.49 2732.42L1736.86 2659.62C1737.49 2658.21 1739.4 2658.01 1740.31 2659.25L1787.17 2723.69ZM1878.55 2764.32C1879.45 2765.56 1878.67 2767.32 1877.14 2767.48L1797.9 2775.85C1796.37 2776.01 1795.24 2774.45 1795.87 2773.05L1828.24 2700.24C1828.86 2698.84 1830.78 2698.64 1831.68 2699.88L1878.55 2764.32ZM1969.92 2804.95C1970.83 2806.19 1970.04 2807.95 1968.51 2808.11L1889.28 2816.48C1887.75 2816.64 1886.62 2815.08 1887.24 2813.68L1919.61 2740.87C1920.24 2739.47 1922.15 2739.27 1923.06 2740.51L1969.92 2804.95ZM2061.29 2845.57C2062.2 2846.82 2061.42 2848.58 2059.89 2848.74L1980.65 2857.11C1979.12 2857.27 1977.99 2855.71 1978.62 2854.31L2010.99 2781.5C2011.61 2780.1 2013.53 2779.89 2014.43 2781.14L2061.29 2845.57ZM2152.67 2886.2C2153.57 2887.45 2152.79 2889.21 2151.26 2889.37L2072.03 2897.74C2070.5 2897.9 2069.36 2896.34 2069.99 2894.93L2102.36 2822.13C2102.99 2820.73 2104.9 2820.52 2105.81 2821.77L2152.67 2886.2ZM2241.32 2932.95C2242.23 2934.2 2241.44 2935.96 2239.91 2936.12L2160.68 2944.49C2159.15 2944.65 2158.02 2943.09 2158.64 2941.68L2191.01 2868.88C2191.64 2867.48 2193.55 2867.27 2194.46 2868.52L2241.32 2932.95ZM2187.1 3054.91C2188.63 3054.74 2189.41 3052.99 2188.5 3051.74L2141.64 2987.31C2140.74 2986.06 2138.82 2986.26 2138.2 2987.67L2105.82 3060.47C2105.2 3061.88 2106.33 3063.43 2107.86 3063.27L2187.1 3054.91ZM2135.69 3170.53C2136.59 3171.77 2135.81 3173.53 2134.28 3173.69L2055.04 3182.06C2053.51 3182.22 2052.38 3180.66 2053.01 3179.26L2085.38 3106.46C2086 3105.05 2087.92 3104.85 2088.82 3106.09L2135.69 3170.53ZM2081.46 3292.48C2082.99 3292.32 2083.77 3290.56 2082.87 3289.31L2036 3224.88C2035.1 3223.63 2033.18 3223.84 2032.56 3225.24L2000.19 3298.04C1999.56 3299.45 2000.69 3301.01 2002.23 3300.85L2081.46 3292.48ZM2030.05 3408.1C2030.95 3409.35 2030.17 3411.1 2028.64 3411.27L1949.41 3419.63C1947.88 3419.79 1946.74 3418.24 1947.37 3416.83L1979.74 3344.03C1980.37 3342.62 1982.28 3342.42 1983.19 3343.67L2030.05 3408.1ZM1975.82 3530.05C1977.35 3529.89 1978.14 3528.13 1977.23 3526.89L1930.37 3462.45C1929.46 3461.21 1927.55 3461.41 1926.92 3462.82L1894.55 3535.62C1893.93 3537.02 1895.06 3538.58 1896.59 3538.42L1975.82 3530.05ZM1924.41 3645.67C1925.32 3646.92 1924.54 3648.68 1923.01 3648.84L1843.77 3657.21C1842.24 3657.37 1841.11 3655.81 1841.73 3654.4L1874.11 3581.6C1874.73 3580.2 1876.64 3579.99 1877.55 3581.24L1924.41 3645.67ZM1872.91 3761.5C1874.44 3761.34 1875.22 3759.58 1874.32 3758.34L1827.45 3693.9C1826.55 3692.66 1824.63 3692.86 1824.01 3694.27L1791.64 3767.07C1791.01 3768.48 1792.14 3770.03 1793.68 3769.87L1872.91 3761.5ZM1824.22 3871C1825.13 3872.25 1824.34 3874.01 1822.81 3874.17L1743.58 3882.54C1742.05 3882.7 1740.92 3881.14 1741.54 3879.74L1773.91 3806.93C1774.54 3805.53 1776.45 3805.32 1777.36 3806.57L1824.22 3871ZM1769.99 3992.96C1771.53 3992.8 1772.31 3991.04 1771.4 3989.79L1724.54 3925.36C1723.63 3924.11 1721.72 3924.31 1721.09 3925.72L1688.72 3998.52C1688.1 3999.93 1689.23 4001.49 1690.76 4001.32L1769.99 3992.96ZM1718.58 4108.58C1719.49 4109.82 1718.71 4111.58 1717.18 4111.74L1637.94 4120.11C1636.41 4120.27 1635.28 4118.72 1635.9 4117.31L1668.28 4044.51C1668.9 4043.1 1670.82 4042.9 1671.72 4044.14L1718.58 4108.58ZM1664.36 4230.53C1665.89 4230.37 1666.67 4228.61 1665.77 4227.36L1618.9 4162.93C1618 4161.68 1616.08 4161.89 1615.46 4163.29L1583.09 4236.1C1582.46 4237.5 1583.59 4239.06 1585.12 4238.9L1664.36 4230.53ZM1612.95 4346.15C1613.85 4347.4 1613.07 4349.15 1611.54 4349.32L1532.31 4357.68C1530.78 4357.84 1529.64 4356.29 1530.27 4354.88L1562.64 4282.08C1563.27 4280.67 1565.18 4280.47 1566.08 4281.72L1612.95 4346.15ZM1560.13 4464.94C1561.03 4466.18 1560.25 4467.94 1558.72 4468.1L1479.49 4476.47C1477.96 4476.63 1476.82 4475.07 1477.45 4473.67L1509.82 4400.87C1510.45 4399.46 1512.36 4399.26 1513.27 4400.5L1560.13 4464.94ZM1464.63 4433.59C1466.16 4433.43 1466.94 4431.67 1466.03 4430.43L1419.17 4365.99C1418.27 4364.75 1416.35 4364.95 1415.73 4366.36L1383.35 4439.16C1382.73 4440.57 1383.86 4442.12 1385.39 4441.96L1464.63 4433.59ZM1518.85 4311.64C1519.76 4312.89 1518.98 4314.65 1517.44 4314.81L1438.21 4323.17C1436.68 4323.34 1435.55 4321.78 1436.17 4320.37L1468.54 4247.57C1469.17 4246.16 1471.08 4245.96 1471.99 4247.21L1518.85 4311.64ZM1570.26 4196.02C1571.79 4195.86 1572.58 4194.1 1571.67 4192.86L1524.81 4128.42C1523.9 4127.18 1521.99 4127.38 1521.36 4128.78L1488.99 4201.59C1488.37 4202.99 1489.5 4204.55 1491.03 4204.39L1570.26 4196.02ZM1624.49 4074.07C1625.39 4075.31 1624.61 4077.07 1623.08 4077.24L1543.85 4085.6C1542.32 4085.76 1541.18 4084.21 1541.81 4082.8L1574.18 4010C1574.81 4008.59 1576.72 4008.39 1577.62 4009.63L1624.49 4074.07ZM1675.9 3958.45C1677.43 3958.29 1678.21 3956.53 1677.31 3955.28L1630.44 3890.85C1629.54 3889.6 1627.62 3889.8 1627 3891.21L1594.63 3964.01C1594 3965.42 1595.13 3966.98 1596.66 3966.82L1675.9 3958.45ZM1730.12 3836.5C1731.03 3837.74 1730.25 3839.5 1728.72 3839.66L1649.48 3848.03C1647.95 3848.19 1646.82 3846.63 1647.45 3845.23L1679.82 3772.43C1680.44 3771.02 1682.36 3770.82 1683.26 3772.06L1730.12 3836.5ZM1781.53 3720.88C1783.07 3720.71 1783.85 3718.96 1782.94 3717.71L1736.08 3653.27C1735.17 3652.03 1733.26 3652.23 1732.63 3653.64L1700.26 3726.44C1699.64 3727.85 1700.77 3729.4 1702.3 3729.24L1781.53 3720.88ZM1835.76 3598.92C1836.67 3600.17 1835.88 3601.93 1834.35 3602.09L1755.12 3610.46C1753.59 3610.62 1752.46 3609.06 1753.08 3607.65L1785.45 3534.85C1786.08 3533.45 1787.99 3533.24 1788.9 3534.49L1835.76 3598.92ZM1887.17 3483.3C1888.7 3483.14 1889.48 3481.38 1888.58 3480.14L1841.72 3415.7C1840.81 3414.46 1838.9 3414.66 1838.27 3416.07L1805.9 3488.87C1805.27 3490.27 1806.41 3491.83 1807.94 3491.67L1887.17 3483.3ZM1941.4 3361.35C1942.3 3362.6 1941.52 3364.35 1939.99 3364.52L1860.76 3372.88C1859.22 3373.04 1858.09 3371.49 1858.72 3370.08L1891.09 3297.28C1891.71 3295.87 1893.63 3295.67 1894.53 3296.92L1941.4 3361.35ZM1992.81 3245.73C1994.34 3245.57 1995.12 3243.81 1994.21 3242.56L1947.35 3178.13C1946.45 3176.88 1944.53 3177.09 1943.91 3178.49L1911.54 3251.29C1910.91 3252.7 1912.04 3254.26 1913.57 3254.1L1992.81 3245.73ZM2047.03 3123.78C2047.94 3125.02 2047.16 3126.78 2045.63 3126.94L1966.39 3135.31C1964.86 3135.47 1963.73 3133.91 1964.35 3132.51L1996.72 3059.71C1997.35 3058.3 1999.26 3058.1 2000.17 3059.34L2047.03 3123.78ZM2098.44 3008.16C2099.97 3007.99 2100.76 3006.24 2099.85 3004.99L2052.99 2940.56C2052.08 2939.31 2050.17 2939.51 2049.54 2940.92L2017.17 3013.72C2016.55 3015.13 2017.68 3016.68 2019.21 3016.52L2098.44 3008.16ZM1373.25 4392.97C1374.78 4392.8 1375.56 4391.05 1374.66 4389.8L1327.8 4325.36C1326.89 4324.12 1324.98 4324.32 1324.35 4325.73L1291.98 4398.53C1291.35 4399.94 1292.49 4401.49 1294.02 4401.33L1373.25 4392.97ZM1427.48 4271.01C1428.38 4272.26 1427.6 4274.02 1426.07 4274.18L1346.84 4282.55C1345.3 4282.71 1344.17 4281.15 1344.8 4279.74L1377.17 4206.94C1377.8 4205.54 1379.71 4205.33 1380.61 4206.58L1427.48 4271.01ZM1478.89 4155.39C1480.42 4155.23 1481.2 4153.47 1480.3 4152.23L1433.43 4087.79C1432.53 4086.55 1430.61 4086.75 1429.99 4088.16L1397.62 4160.96C1396.99 4162.36 1398.12 4163.92 1399.65 4163.76L1478.89 4155.39ZM1533.11 4033.44C1534.02 4034.69 1533.24 4036.44 1531.71 4036.61L1452.47 4044.97C1450.94 4045.13 1449.81 4043.58 1450.43 4042.17L1482.81 3969.37C1483.43 3967.96 1485.35 3967.76 1486.25 3969.01L1533.11 4033.44ZM1584.52 3917.82C1586.06 3917.66 1586.84 3915.9 1585.93 3914.65L1539.07 3850.22C1538.16 3848.97 1536.25 3849.18 1535.62 3850.58L1503.25 3923.38C1502.63 3924.79 1503.76 3926.35 1505.29 3926.19L1584.52 3917.82ZM1638.75 3795.87C1639.66 3797.11 1638.87 3798.87 1637.34 3799.03L1558.11 3807.4C1556.58 3807.56 1555.45 3806 1556.07 3804.6L1588.44 3731.8C1589.07 3730.39 1590.98 3730.19 1591.89 3731.43L1638.75 3795.87ZM1690.16 3680.25C1691.69 3680.08 1692.47 3678.33 1691.57 3677.08L1644.71 3612.65C1643.8 3611.4 1641.89 3611.6 1641.26 3613.01L1608.89 3685.81C1608.26 3687.22 1609.4 3688.77 1610.93 3688.61L1690.16 3680.25ZM1744.39 3558.29C1745.29 3559.54 1744.51 3561.3 1742.98 3561.46L1663.74 3569.83C1662.21 3569.99 1661.08 3568.43 1661.71 3567.02L1694.08 3494.22C1694.7 3492.82 1696.62 3492.61 1697.52 3493.86L1744.39 3558.29ZM1795.8 3442.67C1797.33 3442.51 1798.11 3440.75 1797.2 3439.51L1750.34 3375.07C1749.44 3373.83 1747.52 3374.03 1746.9 3375.44L1714.53 3448.24C1713.9 3449.64 1715.03 3451.2 1716.56 3451.04L1795.8 3442.67ZM1850.02 3320.72C1850.93 3321.97 1850.15 3323.72 1848.61 3323.89L1769.38 3332.25C1767.85 3332.41 1766.72 3330.86 1767.34 3329.45L1799.71 3256.65C1800.34 3255.24 1802.25 3255.04 1803.16 3256.29L1850.02 3320.72ZM1901.43 3205.1C1902.96 3204.94 1903.75 3203.18 1902.84 3201.93L1855.98 3137.5C1855.07 3136.25 1853.16 3136.46 1852.53 3137.86L1820.16 3210.66C1819.54 3212.07 1820.67 3213.63 1822.2 3213.47L1901.43 3205.1ZM1955.66 3083.15C1956.56 3084.39 1955.78 3086.15 1954.25 3086.31L1875.02 3094.68C1873.49 3094.84 1872.35 3093.29 1872.98 3091.88L1905.35 3019.08C1905.98 3017.67 1907.89 3017.47 1908.8 3018.71L1955.66 3083.15ZM2007.07 2967.53C2008.6 2967.36 2009.38 2965.61 2008.48 2964.36L1961.61 2899.93C1960.71 2898.68 1958.79 2898.88 1958.17 2900.29L1925.8 2973.09C1925.17 2974.5 1926.3 2976.05 1927.84 2975.89L2007.07 2967.53ZM1281.88 4352.34C1283.41 4352.17 1284.19 4350.42 1283.28 4349.17L1236.42 4284.74C1235.52 4283.49 1233.6 4283.69 1232.98 4285.1L1200.61 4357.9C1199.98 4359.31 1201.11 4360.86 1202.64 4360.7L1281.88 4352.34ZM1336.1 4230.38C1337.01 4231.63 1336.23 4233.39 1334.7 4233.55L1255.46 4241.92C1253.93 4242.08 1252.8 4240.52 1253.42 4239.11L1285.8 4166.31C1286.42 4164.91 1288.33 4164.7 1289.24 4165.95L1336.1 4230.38ZM1387.51 4114.76C1389.04 4114.6 1389.83 4112.84 1388.92 4111.6L1342.06 4047.16C1341.15 4045.92 1339.24 4046.12 1338.61 4047.53L1306.24 4120.33C1305.62 4121.73 1306.75 4123.29 1308.28 4123.13L1387.51 4114.76ZM1441.74 3992.81C1442.64 3994.06 1441.86 3995.81 1440.33 3995.98L1361.1 4004.34C1359.57 4004.5 1358.43 4002.95 1359.06 4001.54L1391.43 3928.74C1392.06 3927.33 1393.97 3927.13 1394.88 3928.38L1441.74 3992.81ZM1493.15 3877.19C1494.68 3877.03 1495.46 3875.27 1494.56 3874.02L1447.69 3809.59C1446.79 3808.34 1444.88 3808.55 1444.25 3809.95L1411.88 3882.75C1411.25 3884.16 1412.38 3885.72 1413.92 3885.56L1493.15 3877.19ZM1547.38 3755.24C1548.28 3756.48 1547.5 3758.24 1545.97 3758.4L1466.73 3766.77C1465.2 3766.93 1464.07 3765.38 1464.7 3763.97L1497.07 3691.17C1497.69 3689.76 1499.61 3689.56 1500.51 3690.8L1547.38 3755.24ZM1598.79 3639.62C1600.32 3639.45 1601.1 3637.7 1600.19 3636.45L1553.33 3572.02C1552.43 3570.77 1550.51 3570.97 1549.89 3572.38L1517.51 3645.18C1516.89 3646.59 1518.02 3648.15 1519.55 3647.98L1598.79 3639.62ZM1653.01 3517.66C1653.92 3518.91 1653.14 3520.67 1651.6 3520.83L1572.37 3529.2C1570.84 3529.36 1569.71 3527.8 1570.33 3526.4L1602.7 3453.59C1603.33 3452.19 1605.24 3451.98 1606.15 3453.23L1653.01 3517.66ZM1704.42 3402.04C1705.95 3401.88 1706.74 3400.12 1705.83 3398.88L1658.97 3334.44C1658.06 3333.2 1656.15 3333.4 1655.52 3334.81L1623.15 3407.61C1622.53 3409.02 1623.66 3410.57 1625.19 3410.41L1704.42 3402.04ZM1758.65 3280.09C1759.55 3281.34 1758.77 3283.1 1757.24 3283.26L1678.01 3291.62C1676.48 3291.79 1675.34 3290.23 1675.97 3288.82L1708.34 3216.02C1708.97 3214.61 1710.88 3214.41 1711.79 3215.66L1758.65 3280.09ZM1810.06 3164.47C1811.59 3164.31 1812.37 3162.55 1811.47 3161.31L1764.6 3096.87C1763.7 3095.62 1761.78 3095.83 1761.16 3097.23L1728.79 3170.04C1728.16 3171.44 1729.29 3173 1730.82 3172.84L1810.06 3164.47ZM1864.28 3042.52C1865.19 3043.76 1864.41 3045.52 1862.88 3045.68L1783.64 3054.05C1782.11 3054.21 1780.98 3052.66 1781.61 3051.25L1813.98 2978.45C1814.6 2977.04 1816.52 2976.84 1817.42 2978.08L1864.28 3042.52ZM1915.69 2926.9C1917.23 2926.74 1918.01 2924.98 1917.1 2923.73L1870.24 2859.3C1869.33 2858.05 1867.42 2858.25 1866.79 2859.66L1834.42 2932.46C1833.8 2933.87 1834.93 2935.43 1836.46 2935.26L1915.69 2926.9ZM1190.5 4311.71C1192.03 4311.55 1192.82 4309.79 1191.91 4308.54L1145.05 4244.11C1144.14 4242.86 1142.23 4243.06 1141.6 4244.47L1109.23 4317.27C1108.61 4318.68 1109.74 4320.24 1111.27 4320.07L1190.5 4311.71ZM1244.73 4189.75C1245.63 4191 1244.85 4192.76 1243.32 4192.92L1164.09 4201.29C1162.56 4201.45 1161.42 4199.89 1162.05 4198.49L1194.42 4125.68C1195.05 4124.28 1196.96 4124.07 1197.87 4125.32L1244.73 4189.75ZM1296.14 4074.13C1297.67 4073.97 1298.45 4072.21 1297.55 4070.97L1250.68 4006.53C1249.78 4005.29 1247.86 4005.49 1247.24 4006.9L1214.87 4079.7C1214.24 4081.11 1215.37 4082.66 1216.91 4082.5L1296.14 4074.13ZM1350.36 3952.18C1351.27 3953.43 1350.49 3955.19 1348.96 3955.35L1269.72 3963.71C1268.19 3963.88 1267.06 3962.32 1267.69 3960.91L1300.06 3888.11C1300.68 3886.7 1302.6 3886.5 1303.5 3887.75L1350.36 3952.18ZM1401.78 3836.56C1403.31 3836.4 1404.09 3834.64 1403.18 3833.4L1356.32 3768.96C1355.41 3767.71 1353.5 3767.92 1352.88 3769.32L1320.5 3842.13C1319.88 3843.53 1321.01 3845.09 1322.54 3844.93L1401.78 3836.56ZM1456 3714.61C1456.91 3715.85 1456.12 3717.61 1454.59 3717.77L1375.36 3726.14C1373.83 3726.3 1372.7 3724.75 1373.32 3723.34L1405.69 3650.54C1406.32 3649.13 1408.23 3648.93 1409.14 3650.17L1456 3714.61ZM1507.41 3598.99C1508.94 3598.83 1509.72 3597.07 1508.82 3595.82L1461.96 3531.39C1461.05 3530.14 1459.14 3530.34 1458.51 3531.75L1426.14 3604.55C1425.51 3605.96 1426.65 3607.52 1428.18 3607.35L1507.41 3598.99ZM1561.64 3477.04C1562.54 3478.28 1561.76 3480.04 1560.23 3480.2L1481 3488.57C1479.46 3488.73 1478.33 3487.17 1478.96 3485.77L1511.33 3412.96C1511.96 3411.56 1513.87 3411.36 1514.77 3412.6L1561.64 3477.04ZM1613.05 3361.41C1614.58 3361.25 1615.36 3359.49 1614.46 3358.25L1567.59 3293.81C1566.69 3292.57 1564.77 3292.77 1564.15 3294.18L1531.78 3366.98C1531.15 3368.39 1532.28 3369.94 1533.81 3369.78L1613.05 3361.41ZM1667.27 3239.46C1668.18 3240.71 1667.4 3242.47 1665.87 3242.63L1586.63 3250.99C1585.1 3251.16 1583.97 3249.6 1584.59 3248.19L1616.97 3175.39C1617.59 3173.98 1619.51 3173.78 1620.41 3175.03L1667.27 3239.46ZM1718.68 3123.84C1720.22 3123.68 1721 3121.92 1720.09 3120.68L1673.23 3056.24C1672.32 3055 1670.41 3055.2 1669.78 3056.6L1637.41 3129.41C1636.79 3130.81 1637.92 3132.37 1639.45 3132.21L1718.68 3123.84ZM1772.91 3001.89C1773.82 3003.13 1773.03 3004.89 1771.5 3005.05L1692.27 3013.42C1690.74 3013.58 1689.61 3012.03 1690.23 3010.62L1722.6 2937.82C1723.23 2936.41 1725.14 2936.21 1726.05 2937.45L1772.91 3001.89ZM1824.32 2886.27C1825.85 2886.11 1826.63 2884.35 1825.73 2883.1L1778.87 2818.67C1777.96 2817.42 1776.05 2817.62 1775.42 2819.03L1743.05 2891.83C1742.42 2893.24 1743.56 2894.8 1745.09 2894.63L1824.32 2886.27ZM1099.13 4271.08C1100.66 4270.92 1101.44 4269.16 1100.54 4267.91L1053.67 4203.48C1052.77 4202.23 1050.85 4202.43 1050.23 4203.84L1017.86 4276.64C1017.23 4278.05 1018.36 4279.61 1019.9 4279.44L1099.13 4271.08ZM1153.35 4149.13C1154.26 4150.37 1153.48 4152.13 1151.95 4152.29L1072.71 4160.66C1071.18 4160.82 1070.05 4159.26 1070.68 4157.86L1103.05 4085.05C1103.67 4083.65 1105.59 4083.45 1106.49 4084.69L1153.35 4149.13ZM1204.77 4033.5C1206.3 4033.34 1207.08 4031.58 1206.17 4030.34L1159.31 3965.9C1158.4 3964.66 1156.49 3964.86 1155.86 3966.27L1123.49 4039.07C1122.87 4040.48 1124 4042.03 1125.53 4041.87L1204.77 4033.5ZM1258.99 3911.55C1259.9 3912.8 1259.11 3914.56 1257.58 3914.72L1178.35 3923.08C1176.82 3923.25 1175.69 3921.69 1176.31 3920.28L1208.68 3847.48C1209.31 3846.07 1211.22 3845.87 1212.13 3847.12L1258.99 3911.55ZM1310.4 3795.93C1311.93 3795.77 1312.71 3794.01 1311.81 3792.77L1264.95 3728.33C1264.04 3727.09 1262.13 3727.29 1261.5 3728.69L1229.13 3801.5C1228.5 3802.9 1229.64 3804.46 1231.17 3804.3L1310.4 3795.93ZM1364.63 3673.98C1365.53 3675.22 1364.75 3676.98 1363.22 3677.14L1283.99 3685.51C1282.45 3685.67 1281.32 3684.12 1281.95 3682.71L1314.32 3609.91C1314.94 3608.5 1316.86 3608.3 1317.76 3609.54L1364.63 3673.98ZM1416.04 3558.36C1417.57 3558.2 1418.35 3556.44 1417.44 3555.19L1370.58 3490.76C1369.68 3489.51 1367.76 3489.71 1367.14 3491.12L1334.77 3563.92C1334.14 3565.33 1335.27 3566.89 1336.8 3566.72L1416.04 3558.36ZM1470.26 3436.41C1471.17 3437.65 1470.39 3439.41 1468.86 3439.57L1389.62 3447.94C1388.09 3448.1 1386.96 3446.54 1387.58 3445.14L1419.96 3372.33C1420.58 3370.93 1422.49 3370.73 1423.4 3371.97L1470.26 3436.41ZM1521.67 3320.78C1523.2 3320.62 1523.99 3318.86 1523.08 3317.62L1476.22 3253.18C1475.31 3251.94 1473.4 3252.14 1472.77 3253.55L1440.4 3326.35C1439.78 3327.76 1440.91 3329.31 1442.44 3329.15L1521.67 3320.78ZM1575.9 3198.83C1576.8 3200.08 1576.02 3201.84 1574.49 3202L1495.26 3210.37C1493.73 3210.53 1492.59 3208.97 1493.22 3207.56L1525.59 3134.76C1526.22 3133.35 1528.13 3133.15 1529.04 3134.4L1575.9 3198.83ZM1627.31 3083.21C1628.84 3083.05 1629.62 3081.29 1628.72 3080.05L1581.85 3015.61C1580.95 3014.37 1579.04 3014.57 1578.41 3015.98L1546.04 3088.78C1545.41 3090.18 1546.54 3091.74 1548.08 3091.58L1627.31 3083.21ZM1681.54 2961.26C1682.44 2962.51 1681.66 2964.26 1680.13 2964.43L1600.89 2972.79C1599.36 2972.95 1598.23 2971.4 1598.86 2969.99L1631.23 2897.19C1631.85 2895.78 1633.77 2895.58 1634.67 2896.82L1681.54 2961.26ZM1732.95 2845.64C1734.48 2845.48 1735.26 2843.72 1734.35 2842.47L1687.49 2778.04C1686.59 2776.79 1684.67 2777 1684.05 2778.4L1651.67 2851.2C1651.05 2852.61 1652.18 2854.17 1653.71 2854.01L1732.95 2845.64ZM1007.75 4230.45C1009.29 4230.29 1010.07 4228.53 1009.16 4227.28L962.299 4162.85C961.394 4161.6 959.48 4161.8 958.854 4163.21L926.483 4236.01C925.858 4237.42 926.99 4238.98 928.521 4238.81L1007.75 4230.45ZM1061.98 4108.5C1062.89 4109.74 1062.1 4111.5 1060.57 4111.66L981.339 4120.03C979.808 4120.19 978.676 4118.63 979.301 4117.23L1011.67 4044.42C1012.3 4043.02 1014.21 4042.82 1015.12 4044.06L1061.98 4108.5ZM1113.39 3992.87C1114.92 3992.71 1115.7 3990.95 1114.8 3989.71L1067.94 3925.27C1067.03 3924.03 1065.12 3924.23 1064.49 3925.64L1032.12 3998.44C1031.49 3999.85 1032.63 4001.4 1034.16 4001.24L1113.39 3992.87ZM1167.62 3870.92C1168.52 3872.17 1167.74 3873.93 1166.21 3874.09L1086.98 3882.46C1085.44 3882.62 1084.31 3881.06 1084.94 3879.65L1117.31 3806.85C1117.93 3805.44 1119.85 3805.24 1120.75 3806.49L1167.62 3870.92ZM1219.03 3755.3C1220.56 3755.14 1221.34 3753.38 1220.43 3752.14L1173.57 3687.7C1172.67 3686.46 1170.75 3686.66 1170.13 3688.07L1137.76 3760.87C1137.13 3762.27 1138.26 3763.83 1139.79 3763.67L1219.03 3755.3ZM1273.25 3633.35C1274.16 3634.6 1273.38 3636.35 1271.85 3636.52L1192.61 3644.88C1191.08 3645.04 1189.95 3643.49 1190.57 3642.08L1222.94 3569.28C1223.57 3567.87 1225.48 3567.67 1226.39 3568.91L1273.25 3633.35ZM1324.66 3517.73C1326.19 3517.57 1326.98 3515.81 1326.07 3514.56L1279.21 3450.13C1278.3 3448.88 1276.39 3449.09 1275.76 3450.49L1243.39 3523.29C1242.77 3524.7 1243.9 3526.26 1245.43 3526.1L1324.66 3517.73ZM1378.89 3395.78C1379.79 3397.02 1379.01 3398.78 1377.48 3398.94L1298.25 3407.31C1296.72 3407.47 1295.58 3405.91 1296.21 3404.51L1328.58 3331.71C1329.21 3330.3 1331.12 3330.1 1332.03 3331.34L1378.89 3395.78ZM1430.3 3280.16C1431.83 3279.99 1432.61 3278.24 1431.71 3276.99L1384.84 3212.56C1383.94 3211.31 1382.02 3211.51 1381.4 3212.92L1349.03 3285.72C1348.4 3287.13 1349.53 3288.68 1351.07 3288.52L1430.3 3280.16ZM1484.52 3158.2C1485.43 3159.45 1484.65 3161.21 1483.12 3161.37L1403.88 3169.74C1402.35 3169.9 1401.22 3168.34 1401.85 3166.93L1434.22 3094.13C1434.84 3092.73 1436.76 3092.52 1437.66 3093.77L1484.52 3158.2ZM1535.94 3042.58C1537.47 3042.42 1538.25 3040.66 1537.34 3039.42L1490.48 2974.98C1489.57 2973.74 1487.66 2973.94 1487.04 2975.35L1454.66 3048.15C1454.04 3049.55 1455.17 3051.11 1456.7 3050.95L1535.94 3042.58ZM1590.16 2920.63C1591.07 2921.88 1590.28 2923.63 1588.75 2923.8L1509.52 2932.16C1507.99 2932.32 1506.86 2930.77 1507.48 2929.36L1539.85 2856.56C1540.48 2855.15 1542.39 2854.95 1543.3 2856.2L1590.16 2920.63ZM1641.57 2805.01C1643.1 2804.85 1643.88 2803.09 1642.98 2801.84L1596.12 2737.41C1595.21 2736.16 1593.3 2736.37 1592.67 2737.77L1560.3 2810.57C1559.67 2811.98 1560.81 2813.54 1562.34 2813.38L1641.57 2805.01ZM916.38 4189.82C917.911 4189.66 918.693 4187.9 917.788 4186.65L870.925 4122.22C870.019 4120.97 868.106 4121.18 867.48 4122.58L835.109 4195.38C834.483 4196.79 835.615 4198.35 837.146 4198.19L916.38 4189.82ZM970.606 4067.87C971.511 4069.11 970.729 4070.87 969.198 4071.03L889.965 4079.4C888.433 4079.56 887.302 4078 887.927 4076.6L920.298 4003.8C920.924 4002.39 922.838 4002.19 923.743 4003.43L970.606 4067.87ZM1022.02 3952.25C1023.55 3952.08 1024.33 3950.33 1023.42 3949.08L976.561 3884.65C975.656 3883.4 973.742 3883.6 973.116 3885.01L940.745 3957.81C940.12 3959.22 941.252 3960.77 942.783 3960.61L1022.02 3952.25ZM1076.24 3830.29C1077.15 3831.54 1076.37 3833.3 1074.83 3833.46L995.601 3841.83C994.07 3841.99 992.938 3840.43 993.563 3839.02L1025.93 3766.22C1026.56 3764.82 1028.47 3764.61 1029.38 3765.86L1076.24 3830.29ZM1127.65 3714.67C1129.18 3714.51 1129.97 3712.75 1129.06 3711.51L1082.2 3647.07C1081.29 3645.83 1079.38 3646.03 1078.75 3647.44L1046.38 3720.24C1045.76 3721.64 1046.89 3723.2 1048.42 3723.04L1127.65 3714.67ZM1181.88 3592.72C1182.78 3593.97 1182 3595.72 1180.47 3595.89L1101.24 3604.25C1099.71 3604.41 1098.57 3602.86 1099.2 3601.45L1131.57 3528.65C1132.2 3527.24 1134.11 3527.04 1135.02 3528.29L1181.88 3592.72ZM1233.29 3477.1C1234.82 3476.94 1235.6 3475.18 1234.7 3473.93L1187.83 3409.5C1186.93 3408.25 1185.01 3408.46 1184.39 3409.86L1152.02 3482.66C1151.39 3484.07 1152.52 3485.63 1154.06 3485.47L1233.29 3477.1ZM1287.51 3355.15C1288.42 3356.39 1287.64 3358.15 1286.11 3358.31L1206.87 3366.68C1205.34 3366.84 1204.21 3365.28 1204.84 3363.88L1237.21 3291.08C1237.83 3289.67 1239.75 3289.47 1240.65 3290.71L1287.51 3355.15ZM1338.93 3239.53C1340.46 3239.36 1341.24 3237.61 1340.33 3236.36L1293.47 3171.93C1292.56 3170.68 1290.65 3170.88 1290.02 3172.29L1257.65 3245.09C1257.03 3246.5 1258.16 3248.05 1259.69 3247.89L1338.93 3239.53ZM1393.15 3117.57C1394.06 3118.82 1393.27 3120.58 1391.74 3120.74L1312.51 3129.11C1310.98 3129.27 1309.85 3127.71 1310.47 3126.3L1342.84 3053.5C1343.47 3052.1 1345.38 3051.89 1346.29 3053.14L1393.15 3117.57ZM1444.56 3001.95C1446.09 3001.79 1446.87 3000.03 1445.97 2998.79L1399.11 2934.35C1398.2 2933.11 1396.29 2933.31 1395.66 2934.72L1363.29 3007.52C1362.66 3008.93 1363.8 3010.48 1365.33 3010.32L1444.56 3001.95ZM1498.79 2880C1499.69 2881.25 1498.91 2883 1497.38 2883.17L1418.15 2891.53C1416.61 2891.69 1415.48 2890.14 1416.11 2888.73L1448.48 2815.93C1449.1 2814.52 1451.02 2814.32 1451.92 2815.57L1498.79 2880ZM1550.2 2764.38C1551.73 2764.22 1552.51 2762.46 1551.6 2761.21L1504.74 2696.78C1503.84 2695.53 1501.92 2695.74 1501.3 2697.14L1468.93 2769.95C1468.3 2771.35 1469.43 2772.91 1470.96 2772.75L1550.2 2764.38Z" fill="url(#paint1_linear_3721_18)"/>
<path d="M-86.4212 1064.73C-124.053 1056.64 -156.323 1092.33 -144.509 1128.96L369.006 2721.11C380.82 2757.74 427.86 2767.85 453.676 2739.3L1575.76 1498.51C1601.58 1469.96 1586.81 1424.17 1549.18 1416.09L-86.4212 1064.73Z" fill="url(#paint2_linear_3721_18)"/>
<defs>
<linearGradient id="paint0_linear_3721_18" x1="-26.1458" y1="-23.1138" x2="751.547" y2="445.047" gradientUnits="userSpaceOnUse">
<stop offset="0.120557" stop-color="#99FFF0"/>
<stop offset="0.373864" stop-color="#1A6358"/>
<stop offset="1" stop-color="#020E0C"/>
</linearGradient>
<linearGradient id="paint1_linear_3721_18" x1="916.813" y1="3154.13" x2="1949.36" y2="3452.55" gradientUnits="userSpaceOnUse">
<stop offset="0.402872" stop-color="#020E0C"/>
<stop offset="0.675989" stop-color="#1A6358"/>
<stop offset="1" stop-color="#99FFF0"/>
</linearGradient>
<linearGradient id="paint2_linear_3721_18" x1="-147.097" y1="1037.75" x2="1144.96" y2="2114.74" gradientUnits="userSpaceOnUse">
<stop stop-color="#99FFF0"/>
<stop offset="0.508818" stop-color="#1A6358"/>
<stop offset="0.883765" stop-color="#020E0C"/>
</linearGradient>
</defs>
</svg>
