<svg width="161" height="108" viewBox="0 0 161 108" fill="none" xmlns="http://www.w3.org/2000/svg">
<path d="M48.2679 97C49.0377 98.3333 50.9623 98.3333 51.7321 97L91.5692 28C92.339 26.6667 91.3768 25 89.8372 25H10.1628C8.62323 25 7.66098 26.6667 8.43078 28L48.2679 97Z" fill="#23C4AC"/>
<path d="M34.4018 36.864C35.8258 36.864 37.0178 37 37.9778 37.272C38.9538 37.544 39.6818 37.992 40.1618 38.616C40.6578 39.24 40.9058 40.072 40.9058 41.112C40.9058 41.784 40.7778 42.384 40.5218 42.912C40.2818 43.424 39.9138 43.856 39.4178 44.208C38.9378 44.544 38.3458 44.776 37.6418 44.904V45.024C38.3618 45.136 39.0098 45.344 39.5858 45.648C40.1778 45.952 40.6418 46.384 40.9778 46.944C41.3138 47.504 41.4818 48.232 41.4818 49.128C41.4818 50.168 41.2418 51.056 40.7618 51.792C40.2818 52.512 39.5938 53.064 38.6978 53.448C37.8178 53.816 36.7618 54 35.5298 54H29.5058V36.864H34.4018ZM34.8338 44.16C36.3058 44.16 37.3138 43.928 37.8578 43.464C38.4018 42.984 38.6738 42.28 38.6738 41.352C38.6738 40.408 38.3378 39.736 37.6658 39.336C37.0098 38.92 35.9538 38.712 34.4978 38.712H31.6658V44.16H34.8338ZM31.6658 45.96V52.176H35.1218C36.6418 52.176 37.6978 51.88 38.2898 51.288C38.8818 50.696 39.1778 49.92 39.1778 48.96C39.1778 48.352 39.0418 47.824 38.7698 47.376C38.5138 46.928 38.0738 46.584 37.4498 46.344C36.8418 46.088 36.0098 45.96 34.9538 45.96H31.6658ZM52.6992 38.52C51.7872 38.52 50.9632 38.68 50.2272 39C49.4912 39.304 48.8672 39.76 48.3552 40.368C47.8432 40.96 47.4512 41.688 47.1792 42.552C46.9072 43.4 46.7712 44.36 46.7712 45.432C46.7712 46.84 46.9872 48.064 47.4192 49.104C47.8672 50.144 48.5232 50.944 49.3872 51.504C50.2672 52.064 51.3632 52.344 52.6752 52.344C53.4272 52.344 54.1392 52.28 54.8112 52.152C55.4832 52.024 56.1392 51.864 56.7792 51.672V53.544C56.1392 53.784 55.4752 53.96 54.7872 54.072C54.1152 54.184 53.3072 54.24 52.3632 54.24C50.6192 54.24 49.1632 53.88 47.9952 53.16C46.8272 52.44 45.9472 51.416 45.3552 50.088C44.7792 48.76 44.4912 47.2 44.4912 45.408C44.4912 44.112 44.6672 42.928 45.0192 41.856C45.3872 40.784 45.9152 39.856 46.6032 39.072C47.3072 38.288 48.1712 37.688 49.1952 37.272C50.2192 36.84 51.3952 36.624 52.7232 36.624C53.6032 36.624 54.4512 36.712 55.2672 36.888C56.0832 37.064 56.8112 37.312 57.4512 37.632L56.5872 39.456C56.0592 39.216 55.4672 39 54.8112 38.808C54.1712 38.616 53.4672 38.52 52.6992 38.52ZM70.3352 54H60.7592V36.864H70.3352V38.76H62.9192V44.112H69.9032V45.984H62.9192V52.104H70.3352V54ZM89.6665 47.544C89.6665 48.616 89.5225 49.568 89.2345 50.4C88.9625 51.216 88.5625 51.912 88.0345 52.488C87.5225 53.064 86.8905 53.504 86.1385 53.808C85.4025 54.096 84.5785 54.24 83.6665 54.24C82.8185 54.24 82.0345 54.096 81.3145 53.808C80.5945 53.504 79.9705 53.064 79.4425 52.488C78.9145 51.912 78.4985 51.216 78.1945 50.4C77.9065 49.568 77.7625 48.616 77.7625 47.544C77.7625 46.12 78.0025 44.92 78.4825 43.944C78.9625 42.952 79.6505 42.2 80.5465 41.688C81.4425 41.16 82.5065 40.896 83.7385 40.896C84.9065 40.896 85.9305 41.16 86.8105 41.688C87.7065 42.2 88.4025 42.952 88.8985 43.944C89.4105 44.92 89.6665 46.12 89.6665 47.544ZM79.9465 47.544C79.9465 48.552 80.0745 49.432 80.3305 50.184C80.6025 50.92 81.0185 51.488 81.5785 51.888C82.1385 52.288 82.8505 52.488 83.7145 52.488C84.5785 52.488 85.2905 52.288 85.8505 51.888C86.4105 51.488 86.8185 50.92 87.0745 50.184C87.3465 49.432 87.4825 48.552 87.4825 47.544C87.4825 46.52 87.3465 45.648 87.0745 44.928C86.8025 44.208 86.3865 43.656 85.8265 43.272C85.2825 42.872 84.5705 42.672 83.6905 42.672C82.3785 42.672 81.4265 43.104 80.8345 43.968C80.2425 44.832 79.9465 46.024 79.9465 47.544ZM101.899 42.912H97.6994V54H95.6114V42.912H91.4594V41.136H101.899V42.912ZM115.017 44.376C115.017 45.176 114.777 45.8 114.297 46.248C113.817 46.696 113.201 47 112.449 47.16V47.256C113.249 47.368 113.945 47.656 114.537 48.12C115.129 48.568 115.425 49.272 115.425 50.232C115.425 50.776 115.321 51.28 115.113 51.744C114.921 52.208 114.617 52.608 114.201 52.944C113.785 53.28 113.249 53.544 112.593 53.736C111.937 53.912 111.145 54 110.217 54H104.673V41.136H110.193C111.105 41.136 111.921 41.24 112.641 41.448C113.377 41.64 113.953 41.976 114.369 42.456C114.801 42.92 115.017 43.56 115.017 44.376ZM113.241 50.232C113.241 49.496 112.961 48.968 112.401 48.648C111.841 48.328 111.017 48.168 109.929 48.168H106.785V52.296H109.977C111.033 52.296 111.841 52.144 112.401 51.84C112.961 51.52 113.241 50.984 113.241 50.232ZM112.881 44.64C112.881 44.032 112.657 43.592 112.209 43.32C111.777 43.032 111.065 42.888 110.073 42.888H106.785V46.416H109.689C110.729 46.416 111.521 46.272 112.065 45.984C112.609 45.696 112.881 45.248 112.881 44.64ZM123.71 40.896C124.814 40.896 125.758 41.136 126.542 41.616C127.342 42.096 127.95 42.776 128.366 43.656C128.798 44.52 129.014 45.536 129.014 46.704V47.976H120.206C120.238 49.432 120.606 50.544 121.31 51.312C122.03 52.064 123.03 52.44 124.31 52.44C125.126 52.44 125.846 52.368 126.47 52.224C127.11 52.064 127.766 51.84 128.438 51.552V53.4C127.782 53.688 127.134 53.896 126.494 54.024C125.854 54.168 125.094 54.24 124.214 54.24C122.998 54.24 121.918 53.992 120.974 53.496C120.046 53 119.318 52.264 118.79 51.288C118.278 50.296 118.022 49.088 118.022 47.664C118.022 46.256 118.254 45.048 118.718 44.04C119.198 43.032 119.862 42.256 120.71 41.712C121.574 41.168 122.574 40.896 123.71 40.896ZM123.686 42.624C122.678 42.624 121.878 42.952 121.286 43.608C120.71 44.248 120.366 45.144 120.254 46.296H126.806C126.806 45.56 126.694 44.92 126.47 44.376C126.246 43.832 125.902 43.408 125.438 43.104C124.99 42.784 124.406 42.624 123.686 42.624ZM141.408 42.912H137.208V54H135.12V42.912H130.968V41.136H141.408V42.912ZM144.183 54V41.136H146.295V46.416H149.631C150.751 46.416 151.671 46.552 152.391 46.824C153.111 47.096 153.647 47.504 153.999 48.048C154.351 48.576 154.527 49.248 154.527 50.064C154.527 50.864 154.351 51.56 153.999 52.152C153.663 52.744 153.127 53.2 152.391 53.52C151.671 53.84 150.719 54 149.535 54H144.183ZM149.343 52.296C150.255 52.296 150.999 52.144 151.575 51.84C152.151 51.52 152.439 50.968 152.439 50.184C152.439 49.4 152.175 48.872 151.647 48.6C151.119 48.312 150.359 48.168 149.367 48.168H146.295V52.296H149.343ZM156.663 54V41.136H158.775V54H156.663Z" fill="white"/>
<g filter="url(#filter0_d_3726_16)">
<rect x="8" y="22" width="84" height="2" rx="1" fill="white"/>
</g>
<g filter="url(#filter1_d_3726_16)">
<rect x="6.73242" y="26" width="84" height="2" rx="1" transform="rotate(59.9905 6.73242 26)" fill="white"/>
</g>
<g filter="url(#filter2_d_3726_16)">
<path d="M54.6794 64.188C54.6794 64.588 54.5594 64.9 54.3194 65.124C54.0794 65.348 53.7714 65.5 53.3954 65.58V65.628C53.7954 65.684 54.1434 65.828 54.4394 66.06C54.7354 66.284 54.8834 66.636 54.8834 67.116C54.8834 67.388 54.8314 67.64 54.7274 67.872C54.6314 68.104 54.4794 68.304 54.2714 68.472C54.0634 68.64 53.7954 68.772 53.4674 68.868C53.1394 68.956 52.7434 69 52.2794 69H49.5074V62.568H52.2674C52.7234 62.568 53.1314 62.62 53.4914 62.724C53.8594 62.82 54.1474 62.988 54.3554 63.228C54.5714 63.46 54.6794 63.78 54.6794 64.188ZM53.7914 67.116C53.7914 66.748 53.6514 66.484 53.3714 66.324C53.0914 66.164 52.6794 66.084 52.1354 66.084H50.5634V68.148H52.1594C52.6874 68.148 53.0914 68.072 53.3714 67.92C53.6514 67.76 53.7914 67.492 53.7914 67.116ZM53.6114 64.32C53.6114 64.016 53.4994 63.796 53.2754 63.66C53.0594 63.516 52.7034 63.444 52.2074 63.444H50.5634V65.208H52.0154C52.5354 65.208 52.9314 65.136 53.2034 64.992C53.4754 64.848 53.6114 64.624 53.6114 64.32ZM61.9775 62.568V69H60.9215V63.468H57.5975V69H56.5415V62.568H61.9775ZM67.2098 62.448C68.0018 62.448 68.6378 62.724 69.1178 63.276C69.6058 63.828 69.8498 64.66 69.8498 65.772C69.8498 66.5 69.7378 67.116 69.5138 67.62C69.2978 68.116 68.9898 68.492 68.5898 68.748C68.1978 68.996 67.7338 69.12 67.1978 69.12C66.8698 69.12 66.5778 69.076 66.3218 68.988C66.0658 68.9 65.8458 68.788 65.6618 68.652C65.4858 68.508 65.3338 68.352 65.2058 68.184H65.1338C65.1498 68.32 65.1658 68.492 65.1818 68.7C65.1978 68.908 65.2058 69.088 65.2058 69.24V71.88H64.1498V62.568H65.0138L65.1578 63.444H65.2058C65.3338 63.26 65.4858 63.092 65.6618 62.94C65.8458 62.788 66.0618 62.668 66.3098 62.58C66.5658 62.492 66.8658 62.448 67.2098 62.448ZM67.0178 63.336C66.5858 63.336 66.2378 63.42 65.9738 63.588C65.7098 63.748 65.5178 63.992 65.3978 64.32C65.2778 64.648 65.2138 65.064 65.2058 65.568V65.772C65.2058 66.3 65.2618 66.748 65.3738 67.116C65.4858 67.484 65.6738 67.764 65.9378 67.956C66.2098 68.148 66.5778 68.244 67.0418 68.244C67.4338 68.244 67.7538 68.136 68.0018 67.92C68.2578 67.704 68.4458 67.412 68.5658 67.044C68.6938 66.668 68.7578 66.24 68.7578 65.76C68.7578 65.024 68.6138 64.436 68.3258 63.996C68.0458 63.556 67.6098 63.336 67.0178 63.336Z" fill="white"/>
</g>
<g filter="url(#filter3_d_3726_16)">
<path d="M97.5095 80.356C98.1535 80.356 98.7042 80.496 99.1615 80.776C99.6282 81.056 99.9829 81.4527 100.226 81.966C100.478 82.47 100.604 83.0627 100.604 83.744V84.486H95.4655C95.4842 85.3353 95.6989 85.984 96.1095 86.432C96.5295 86.8707 97.1129 87.09 97.8595 87.09C98.3355 87.09 98.7555 87.048 99.1195 86.964C99.4929 86.8707 99.8755 86.74 100.268 86.572V87.65C99.8849 87.818 99.5069 87.9393 99.1335 88.014C98.7602 88.098 98.3169 88.14 97.8035 88.14C97.0942 88.14 96.4642 87.9953 95.9135 87.706C95.3722 87.4167 94.9475 86.9873 94.6395 86.418C94.3409 85.8393 94.1915 85.1347 94.1915 84.304C94.1915 83.4827 94.3269 82.778 94.5975 82.19C94.8775 81.602 95.2649 81.1493 95.7595 80.832C96.2635 80.5147 96.8469 80.356 97.5095 80.356ZM97.4955 81.364C96.9075 81.364 96.4409 81.5553 96.0955 81.938C95.7595 82.3113 95.5589 82.834 95.4935 83.506H99.3155C99.3155 83.0767 99.2502 82.7033 99.1195 82.386C98.9889 82.0687 98.7882 81.8213 98.5175 81.644C98.2562 81.4573 97.9155 81.364 97.4955 81.364ZM107.232 80.496V81.532H103.886V88H102.654V80.496H107.232ZM110.055 88.14C109.625 88.14 109.252 88.1027 108.935 88.028C108.627 87.9627 108.337 87.8647 108.067 87.734V86.67C108.347 86.782 108.65 86.88 108.977 86.964C109.303 87.048 109.672 87.09 110.083 87.09C110.568 87.09 110.988 87.006 111.343 86.838C111.697 86.6607 111.977 86.39 112.183 86.026C112.388 85.662 112.505 85.2 112.533 84.64H108.837V83.632H112.519C112.453 82.8667 112.234 82.3067 111.861 81.952C111.497 81.5973 110.96 81.42 110.251 81.42C109.98 81.42 109.681 81.4573 109.355 81.532C109.037 81.6067 108.753 81.6907 108.501 81.784L108.151 80.79C108.421 80.6687 108.743 80.566 109.117 80.482C109.49 80.398 109.863 80.356 110.237 80.356C110.937 80.356 111.553 80.4867 112.085 80.748C112.626 81.0093 113.046 81.4247 113.345 81.994C113.653 82.5633 113.807 83.3147 113.807 84.248C113.807 85.1347 113.643 85.8673 113.317 86.446C112.999 87.0247 112.556 87.454 111.987 87.734C111.427 88.0047 110.783 88.14 110.055 88.14Z" fill="white"/>
</g>
<g filter="url(#filter4_d_3726_16)">
<path d="M78.5735 75.503C78.5735 76.0837 78.4955 76.5993 78.3395 77.05C78.1922 77.492 77.9755 77.869 77.6895 78.181C77.4122 78.493 77.0699 78.7313 76.6625 78.896C76.2639 79.052 75.8175 79.13 75.3235 79.13C74.8642 79.13 74.4395 79.052 74.0495 78.896C73.6595 78.7313 73.3215 78.493 73.0355 78.181C72.7495 77.869 72.5242 77.492 72.3595 77.05C72.2035 76.5993 72.1255 76.0837 72.1255 75.503C72.1255 74.7317 72.2555 74.0817 72.5155 73.553C72.7755 73.0157 73.1482 72.6083 73.6335 72.331C74.1189 72.045 74.6952 71.902 75.3625 71.902C75.9952 71.902 76.5499 72.045 77.0265 72.331C77.5119 72.6083 77.8889 73.0157 78.1575 73.553C78.4349 74.0817 78.5735 74.7317 78.5735 75.503ZM73.3085 75.503C73.3085 76.049 73.3779 76.5257 73.5165 76.933C73.6639 77.3317 73.8892 77.6393 74.1925 77.856C74.4959 78.0727 74.8815 78.181 75.3495 78.181C75.8175 78.181 76.2032 78.0727 76.5065 77.856C76.8099 77.6393 77.0309 77.3317 77.1695 76.933C77.3169 76.5257 77.3905 76.049 77.3905 75.503C77.3905 74.9483 77.3169 74.476 77.1695 74.086C77.0222 73.696 76.7969 73.397 76.4935 73.189C76.1989 72.9723 75.8132 72.864 75.3365 72.864C74.6259 72.864 74.1102 73.098 73.7895 73.566C73.4689 74.034 73.3085 74.6797 73.3085 75.503ZM84.7676 72.032V72.994H81.6606V79H80.5166V72.032H84.7676ZM87.3886 79.13C86.99 79.13 86.6433 79.0953 86.3486 79.026C86.0626 78.9653 85.794 78.8743 85.5426 78.753V77.765C85.8026 77.869 86.0843 77.96 86.3876 78.038C86.691 78.116 87.0333 78.155 87.4146 78.155C87.8653 78.155 88.2553 78.077 88.5846 77.921C88.914 77.7563 89.174 77.505 89.3646 77.167C89.5553 76.829 89.6636 76.4 89.6896 75.88H86.2576V74.944H89.6766C89.616 74.2333 89.4123 73.7133 89.0656 73.384C88.7276 73.0547 88.2293 72.89 87.5706 72.89C87.3193 72.89 87.042 72.9247 86.7386 72.994C86.444 73.0633 86.1796 73.1413 85.9456 73.228L85.6206 72.305C85.872 72.1923 86.171 72.097 86.5176 72.019C86.8643 71.941 87.211 71.902 87.5576 71.902C88.2076 71.902 88.7796 72.0233 89.2736 72.266C89.7763 72.5087 90.1663 72.8943 90.4436 73.423C90.7296 73.9517 90.8726 74.6493 90.8726 75.516C90.8726 76.3393 90.721 77.0197 90.4176 77.557C90.123 78.0943 89.7113 78.493 89.1826 78.753C88.6626 79.0043 88.0646 79.13 87.3886 79.13Z" fill="white"/>
</g>
<defs>
<filter id="filter0_d_3726_16" x="4" y="22" width="92" height="10" filterUnits="userSpaceOnUse" color-interpolation-filters="sRGB">
<feFlood flood-opacity="0" result="BackgroundImageFix"/>
<feColorMatrix in="SourceAlpha" type="matrix" values="0 0 0 0 0 0 0 0 0 0 0 0 0 0 0 0 0 0 127 0" result="hardAlpha"/>
<feOffset dy="4"/>
<feGaussianBlur stdDeviation="2"/>
<feComposite in2="hardAlpha" operator="out"/>
<feColorMatrix type="matrix" values="0 0 0 0 0 0 0 0 0 0 0 0 0 0 0 0 0 0 0.25 0"/>
<feBlend mode="normal" in2="BackgroundImageFix" result="effect1_dropShadow_3726_16"/>
<feBlend mode="normal" in="SourceGraphic" in2="effect1_dropShadow_3726_16" result="shape"/>
</filter>
<filter id="filter1_d_3726_16" x="1.36719" y="26.3657" width="51.0117" height="81.0078" filterUnits="userSpaceOnUse" color-interpolation-filters="sRGB">
<feFlood flood-opacity="0" result="BackgroundImageFix"/>
<feColorMatrix in="SourceAlpha" type="matrix" values="0 0 0 0 0 0 0 0 0 0 0 0 0 0 0 0 0 0 127 0" result="hardAlpha"/>
<feOffset dy="4"/>
<feGaussianBlur stdDeviation="2"/>
<feComposite in2="hardAlpha" operator="out"/>
<feColorMatrix type="matrix" values="0 0 0 0 0 0 0 0 0 0 0 0 0 0 0 0 0 0 0.25 0"/>
<feBlend mode="normal" in2="BackgroundImageFix" result="effect1_dropShadow_3726_16"/>
<feBlend mode="normal" in="SourceGraphic" in2="effect1_dropShadow_3726_16" result="shape"/>
</filter>
<filter id="filter2_d_3726_16" x="47.5078" y="60.4482" width="28.3418" height="17.4316" filterUnits="userSpaceOnUse" color-interpolation-filters="sRGB">
<feFlood flood-opacity="0" result="BackgroundImageFix"/>
<feColorMatrix in="SourceAlpha" type="matrix" values="0 0 0 0 0 0 0 0 0 0 0 0 0 0 0 0 0 0 127 0" result="hardAlpha"/>
<feOffset dx="2" dy="2"/>
<feGaussianBlur stdDeviation="2"/>
<feComposite in2="hardAlpha" operator="out"/>
<feColorMatrix type="matrix" values="0 0 0 0 1 0 0 0 0 1 0 0 0 0 1 0 0 0 1 0"/>
<feBlend mode="normal" in2="BackgroundImageFix" result="effect1_dropShadow_3726_16"/>
<feBlend mode="normal" in="SourceGraphic" in2="effect1_dropShadow_3726_16" result="shape"/>
</filter>
<filter id="filter3_d_3726_16" x="92.1914" y="78.356" width="27.6152" height="15.7842" filterUnits="userSpaceOnUse" color-interpolation-filters="sRGB">
<feFlood flood-opacity="0" result="BackgroundImageFix"/>
<feColorMatrix in="SourceAlpha" type="matrix" values="0 0 0 0 0 0 0 0 0 0 0 0 0 0 0 0 0 0 127 0" result="hardAlpha"/>
<feOffset dx="2" dy="2"/>
<feGaussianBlur stdDeviation="2"/>
<feComposite in2="hardAlpha" operator="out"/>
<feColorMatrix type="matrix" values="0 0 0 0 1 0 0 0 0 1 0 0 0 0 1 0 0 0 1 0"/>
<feBlend mode="normal" in2="BackgroundImageFix" result="effect1_dropShadow_3726_16"/>
<feBlend mode="normal" in="SourceGraphic" in2="effect1_dropShadow_3726_16" result="shape"/>
</filter>
<filter id="filter4_d_3726_16" x="70.125" y="69.9019" width="26.748" height="15.228" filterUnits="userSpaceOnUse" color-interpolation-filters="sRGB">
<feFlood flood-opacity="0" result="BackgroundImageFix"/>
<feColorMatrix in="SourceAlpha" type="matrix" values="0 0 0 0 0 0 0 0 0 0 0 0 0 0 0 0 0 0 127 0" result="hardAlpha"/>
<feOffset dx="2" dy="2"/>
<feGaussianBlur stdDeviation="2"/>
<feComposite in2="hardAlpha" operator="out"/>
<feColorMatrix type="matrix" values="0 0 0 0 1 0 0 0 0 1 0 0 0 0 1 0 0 0 1 0"/>
<feBlend mode="normal" in2="BackgroundImageFix" result="effect1_dropShadow_3726_16"/>
<feBlend mode="normal" in="SourceGraphic" in2="effect1_dropShadow_3726_16" result="shape"/>
</filter>
</defs>
</svg>
